<svg xmlns="http://www.w3.org/2000/svg" xmlns:xlink="http://www.w3.org/1999/xlink" width="1080" zoomAndPan="magnify" viewBox="0 0 810 809.999993" height="1080" preserveAspectRatio="xMidYMid meet" version="1.0"><defs><clipPath id="a28bddc39e"><path d="M 47.683594 47.683594 L 762.3125 47.683594 L 762.3125 762.316406 L 47.683594 762.316406 Z M 47.683594 47.683594 " clip-rule="nonzero"/></clipPath><clipPath id="ae19cc49ee"><path d="M 405 47.683594 C 207.660156 47.683594 47.683594 207.660156 47.683594 405 C 47.683594 602.339844 207.660156 762.316406 405 762.316406 C 602.339844 762.316406 762.3125 602.339844 762.3125 405 C 762.3125 207.660156 602.339844 47.683594 405 47.683594 Z M 405 47.683594 " clip-rule="nonzero"/></clipPath><clipPath id="f24b9df831"><path d="M 184.632812 134.863281 L 625.632812 134.863281 L 625.632812 638.863281 L 184.632812 638.863281 Z M 184.632812 134.863281 " clip-rule="nonzero"/></clipPath></defs><g clip-path="url(#a28bddc39e)"><g clip-path="url(#ae19cc49ee)"><path fill="#e89d5d" d="M 47.683594 47.683594 L 762.3125 47.683594 L 762.3125 762.316406 L 47.683594 762.316406 Z M 47.683594 47.683594 " fill-opacity="1" fill-rule="nonzero"/></g></g><path fill="#a7d0e1" d="M 602.007812 630.988281 L 208.261719 630.988281 C 199.558594 630.988281 192.511719 623.945312 192.511719 615.238281 L 192.511719 331.738281 C 192.511719 262.15625 248.929688 205.738281 318.511719 205.738281 L 491.757812 205.738281 C 561.339844 205.738281 617.757812 262.15625 617.757812 331.738281 L 617.757812 615.238281 C 617.757812 623.945312 610.710938 630.988281 602.007812 630.988281 " fill-opacity="1" fill-rule="nonzero"/><path fill="#80bbce" d="M 515.382812 607.363281 C 350.101562 607.363281 216.136719 473.394531 216.136719 308.113281 C 216.136719 279.351562 225.890625 252.925781 242.101562 231.703125 C 212.015625 254.742188 192.511719 290.917969 192.511719 331.738281 L 192.511719 615.238281 C 192.511719 623.945312 199.558594 630.988281 208.261719 630.988281 L 602.007812 630.988281 C 610.710938 630.988281 617.757812 623.945312 617.757812 615.238281 L 617.757812 607.363281 L 515.382812 607.363281 " fill-opacity="1" fill-rule="nonzero"/><path fill="#e6e6e6" d="M 365.761719 245.113281 L 296.394531 264.925781 C 271.691406 272 253.757812 293.347656 251.050781 318.910156 L 224.011719 575.863281 L 271.261719 575.863281 L 294.886719 355.363281 L 309.160156 426.699219 C 310.144531 431.621094 310.542969 436.667969 310.328125 441.679688 L 303.4375 590.96875 C 303.070312 599.886719 310.234375 607.363281 319.1875 607.363281 L 373.636719 607.363281 C 391.046875 607.363281 405.132812 593.242188 405.132812 575.863281 L 405.132812 245.113281 L 365.761719 245.113281 " fill-opacity="1" fill-rule="nonzero"/><path fill="#cecece" d="M 319.1875 607.363281 L 373.636719 607.363281 C 387.601562 607.363281 399.289062 598.195312 403.441406 585.613281 C 367.050781 570.941406 334.230469 549.347656 306.605469 522.398438 L 303.4375 590.96875 C 303.070312 599.886719 310.234375 607.363281 319.1875 607.363281 " fill-opacity="1" fill-rule="nonzero"/><path fill="#cecece" d="M 280.152344 492.960938 C 263.910156 472.320312 250.28125 449.585938 239.886719 425.101562 L 224.011719 575.863281 L 271.261719 575.863281 L 280.152344 492.960938 " fill-opacity="1" fill-rule="nonzero"/><path fill="#e6e6e6" d="M 513.875 264.925781 L 444.507812 245.113281 L 405.132812 245.113281 L 405.132812 575.863281 C 405.132812 593.242188 419.222656 607.363281 436.632812 607.363281 L 491.082031 607.363281 C 500.03125 607.363281 507.199219 599.886719 506.832031 590.96875 L 499.941406 441.679688 C 499.726562 436.667969 500.125 431.621094 501.109375 426.699219 L 515.382812 355.363281 L 539.007812 575.863281 L 586.257812 575.863281 L 559.21875 318.910156 C 556.511719 293.347656 538.578125 272 513.875 264.925781 " fill-opacity="1" fill-rule="nonzero"/><path fill="#cecece" d="M 495.574219 606.625 C 464.625 604.59375 434.972656 597.890625 407.320312 587.152344 C 411.871094 598.964844 423.222656 607.363281 436.632812 607.363281 L 491.082031 607.363281 C 492.648438 607.363281 494.125 607.054688 495.574219 606.625 " fill-opacity="1" fill-rule="nonzero"/><path fill="#cecece" d="M 405.132812 434.113281 L 350.011719 229.363281 L 460.257812 229.363281 Z M 405.132812 434.113281 " fill-opacity="1" fill-rule="nonzero"/><path fill="#7a838b" d="M 350.011719 229.363281 L 310.636719 276.613281 L 342.136719 292.363281 L 326.386719 315.988281 L 405.132812 434.113281 L 350.011719 229.363281 " fill-opacity="1" fill-rule="nonzero"/><path fill="#7a838b" d="M 460.257812 229.363281 L 499.632812 276.613281 L 468.132812 292.363281 L 483.882812 315.988281 L 405.132812 434.113281 L 460.257812 229.363281 " fill-opacity="1" fill-rule="nonzero"/><path fill="#7a838b" d="M 350.011719 481.363281 L 350.011719 497.113281 C 350.011719 505.757812 342.933594 512.863281 334.261719 512.863281 L 306.699219 512.863281 L 308.019531 481.363281 L 350.011719 481.363281 " fill-opacity="1" fill-rule="nonzero"/><path fill="#7a838b" d="M 460.257812 481.363281 L 460.257812 497.113281 C 460.257812 505.757812 467.332031 512.863281 476.007812 512.863281 L 503.570312 512.863281 L 502.246094 481.363281 L 460.257812 481.363281 " fill-opacity="1" fill-rule="nonzero"/><g clip-path="url(#f24b9df831)"><path fill="#000000" d="M 511.691406 272.492188 C 533.441406 278.707031 549.003906 297.253906 551.375 319.742188 L 577.519531 567.988281 L 546.082031 567.988281 L 523.195312 354.53125 C 522.796875 350.65625 519.628906 347.671875 515.75 347.488281 C 511.84375 347.273438 508.429688 350.011719 507.660156 353.824219 L 493.386719 425.132812 C 492.28125 430.699219 491.851562 436.359375 492.066406 442.050781 L 493.542969 473.488281 L 460.257812 473.488281 C 455.921875 473.488281 452.382812 477.027344 452.382812 481.363281 L 452.382812 497.113281 C 452.382812 510.15625 462.964844 520.738281 476.007812 520.738281 L 495.695312 520.738281 L 498.957031 591.273438 C 499.046875 593.460938 498.28125 595.488281 496.773438 597.058594 C 495.265625 598.628906 493.265625 599.488281 491.082031 599.488281 L 436.632812 599.488281 C 423.589844 599.488281 413.007812 588.90625 413.007812 575.863281 L 413.007812 436.480469 L 490.433594 320.355469 C 492.1875 317.710938 492.1875 314.265625 490.433594 311.621094 L 479.636719 295.410156 L 503.171875 283.65625 C 505.292969 282.582031 506.863281 280.582031 507.355469 278.242188 C 507.847656 275.875 507.230469 273.414062 505.691406 271.570312 L 504.832031 270.554688 Z M 494.988281 504.988281 L 476.007812 504.988281 C 471.671875 504.988281 468.132812 501.449219 468.132812 497.113281 L 468.132812 489.238281 L 494.25 489.238281 Z M 349.734375 290.332031 C 349.179688 288.148438 347.671875 286.335938 345.671875 285.320312 L 323.0625 274 L 346.351562 246.066406 L 385.046875 389.785156 L 335.859375 315.988281 L 348.6875 296.730469 C 349.949219 294.855469 350.316406 292.515625 349.734375 290.332031 Z M 446.9375 248.527344 L 430.480469 237.238281 L 449.984375 237.238281 Z M 422.421875 339.613281 L 405.132812 403.8125 L 387.847656 339.613281 Z M 405.132812 238.929688 L 442.601562 264.679688 L 426.667969 323.863281 L 383.601562 323.863281 L 367.667969 264.679688 Z M 360.285156 237.238281 L 379.789062 237.238281 L 363.328125 248.527344 Z M 487.207031 274 L 464.597656 285.320312 C 462.597656 286.335938 461.089844 288.148438 460.535156 290.332031 C 459.949219 292.515625 460.320312 294.855469 461.582031 296.730469 L 474.410156 315.988281 L 425.222656 389.785156 L 463.917969 246.066406 Z M 342.136719 489.238281 L 342.136719 497.113281 C 342.136719 501.449219 338.597656 504.988281 334.261719 504.988281 L 315.28125 504.988281 L 316.019531 489.238281 Z M 621.417969 298.269531 C 620.339844 294.054688 616.035156 291.53125 611.820312 292.609375 C 607.605469 293.6875 605.082031 297.992188 606.160156 302.207031 C 608.621094 311.804688 609.882812 321.710938 609.882812 331.738281 L 609.882812 615.238281 C 609.882812 619.574219 606.34375 623.113281 602.007812 623.113281 L 208.261719 623.113281 C 203.925781 623.113281 200.386719 619.574219 200.386719 615.238281 L 200.386719 331.738281 C 200.386719 266.585938 253.390625 213.613281 318.511719 213.613281 L 397.257812 213.613281 L 397.257812 221.488281 L 350.011719 221.488281 C 347.671875 221.488281 345.457031 222.535156 343.949219 224.320312 L 323.371094 249.019531 L 294.242188 257.355469 C 266.308594 265.355469 246.285156 289.164062 243.238281 318.082031 L 235.242188 394.03125 C 234.777344 398.367188 237.917969 402.246094 242.253906 402.707031 C 242.53125 402.738281 242.808594 402.738281 243.085938 402.738281 C 247.050781 402.738281 250.46875 399.753906 250.898438 395.691406 L 258.894531 319.742188 C 261.265625 297.253906 276.828125 278.707031 298.578125 272.492188 L 305.4375 270.554688 L 304.574219 271.570312 C 303.039062 273.414062 302.421875 275.875 302.914062 278.242188 C 303.40625 280.582031 304.976562 282.582031 307.097656 283.65625 L 330.632812 295.410156 L 319.832031 311.621094 C 318.082031 314.265625 318.082031 317.710938 319.832031 320.355469 L 397.257812 436.480469 L 397.257812 575.863281 C 397.257812 588.90625 386.679688 599.488281 373.636719 599.488281 L 319.1875 599.488281 C 317.003906 599.488281 315.003906 598.628906 313.496094 597.058594 C 311.988281 595.488281 311.21875 593.460938 311.3125 591.304688 L 314.574219 520.738281 L 334.261719 520.738281 C 347.304688 520.738281 357.886719 510.15625 357.886719 497.113281 L 357.886719 481.363281 C 357.886719 477.027344 354.347656 473.488281 350.011719 473.488281 L 316.726562 473.488281 L 318.203125 442.019531 C 318.417969 436.359375 317.988281 430.699219 316.878906 425.132812 L 302.609375 353.824219 C 301.839844 350.011719 298.578125 347.304688 294.515625 347.488281 C 290.640625 347.671875 287.472656 350.65625 287.074219 354.53125 L 264.1875 567.988281 L 232.75 567.988281 L 247.574219 427.101562 C 248.035156 422.792969 244.898438 418.917969 240.59375 418.457031 C 236.195312 417.933594 232.378906 421.132812 231.917969 425.46875 L 216.167969 575.03125 C 215.953125 577.246094 216.660156 579.460938 218.167969 581.125 C 219.644531 582.785156 221.796875 583.738281 224.011719 583.738281 L 271.261719 583.738281 C 275.292969 583.738281 278.675781 580.691406 279.074219 576.695312 L 297.253906 407.289062 L 301.4375 428.238281 C 302.300781 432.542969 302.636719 436.972656 302.453125 441.3125 L 295.59375 590.628906 C 295.316406 597.121094 297.625 603.273438 302.117188 607.980469 C 306.636719 612.65625 312.695312 615.238281 319.1875 615.238281 L 373.636719 615.238281 C 386.554688 615.238281 397.96875 608.902344 405.132812 599.242188 C 412.300781 608.902344 423.714844 615.238281 436.632812 615.238281 L 491.082031 615.238281 C 497.570312 615.238281 503.632812 612.65625 508.152344 607.980469 C 512.644531 603.273438 514.953125 597.121094 514.675781 590.597656 L 507.816406 441.34375 C 507.632812 436.972656 507.96875 432.542969 508.832031 428.238281 L 513.015625 407.289062 L 531.195312 576.695312 C 531.59375 580.691406 534.976562 583.738281 539.007812 583.738281 L 586.257812 583.738281 C 588.472656 583.738281 590.625 582.785156 592.101562 581.125 C 593.609375 579.460938 594.316406 577.246094 594.101562 575.03125 L 567.03125 318.082031 C 563.984375 289.164062 543.960938 265.355469 516.027344 257.355469 L 486.898438 249.019531 L 466.320312 224.320312 C 464.8125 222.535156 462.597656 221.488281 460.257812 221.488281 L 413.007812 221.488281 L 413.007812 213.613281 L 491.757812 213.613281 C 534.671875 213.613281 574.289062 236.960938 595.117188 274.523438 C 597.238281 278.335938 602.035156 279.71875 605.820312 277.566406 C 609.636719 275.476562 611.019531 270.675781 608.898438 266.863281 C 585.273438 224.289062 540.390625 197.863281 491.757812 197.863281 L 414.238281 197.863281 C 415.59375 194.171875 417.960938 190.910156 421.316406 188.664062 L 426.574219 185.160156 C 432.882812 180.945312 436.632812 173.929688 436.632812 166.363281 C 436.632812 148.984375 422.515625 134.863281 405.132812 134.863281 C 387.753906 134.863281 373.636719 148.984375 373.636719 166.363281 L 373.636719 174.238281 C 373.636719 178.574219 377.171875 182.113281 381.511719 182.113281 C 385.847656 182.113281 389.386719 178.574219 389.386719 174.238281 L 389.386719 166.363281 C 389.386719 157.6875 396.460938 150.613281 405.132812 150.613281 C 413.808594 150.613281 420.882812 157.6875 420.882812 166.363281 C 420.882812 168.640625 419.746094 170.792969 417.839844 172.054688 L 412.578125 175.5625 C 404.765625 180.761719 399.597656 188.820312 397.90625 197.863281 L 318.511719 197.863281 C 244.683594 197.863281 184.636719 257.910156 184.636719 331.738281 L 184.636719 615.238281 C 184.636719 628.28125 195.21875 638.863281 208.261719 638.863281 L 602.007812 638.863281 C 615.050781 638.863281 625.632812 628.28125 625.632812 615.238281 L 625.632812 331.738281 C 625.632812 320.386719 624.214844 309.160156 621.417969 298.269531 " fill-opacity="1" fill-rule="nonzero"/></g><path fill="#ffffff" d="M 568.84375 260.863281 C 566.847656 260.863281 564.878906 260.125 563.339844 258.617188 C 557.617188 253.019531 551.25 248.097656 544.421875 243.976562 C 540.699219 241.730469 539.5 236.898438 541.746094 233.179688 C 543.992188 229.425781 548.820312 228.226562 552.542969 230.5 C 560.449219 235.238281 567.769531 240.929688 574.351562 247.359375 C 577.457031 250.40625 577.519531 255.386719 574.476562 258.496094 C 572.9375 260.0625 570.875 260.863281 568.84375 260.863281 " fill-opacity="1" fill-rule="nonzero"/></svg>