<svg xmlns="http://www.w3.org/2000/svg" xmlns:xlink="http://www.w3.org/1999/xlink" width="1080" zoomAndPan="magnify" viewBox="0 0 810 809.999993" height="1080" preserveAspectRatio="xMidYMid meet" version="1.0"><defs><clipPath id="480dd6dab3"><path d="M 47.683594 61.933594 L 762.3125 61.933594 L 762.3125 776.566406 L 47.683594 776.566406 Z M 47.683594 61.933594 " clip-rule="nonzero"/></clipPath><clipPath id="71aa7e972a"><path d="M 405 61.933594 C 207.660156 61.933594 47.683594 221.910156 47.683594 419.25 C 47.683594 616.589844 207.660156 776.566406 405 776.566406 C 602.339844 776.566406 762.3125 616.589844 762.3125 419.25 C 762.3125 221.910156 602.339844 61.933594 405 61.933594 Z M 405 61.933594 " clip-rule="nonzero"/></clipPath><clipPath id="8bbceae59a"><path d="M 184.632812 153.152344 L 625.632812 153.152344 L 625.632812 657.152344 L 184.632812 657.152344 Z M 184.632812 153.152344 " clip-rule="nonzero"/></clipPath><clipPath id="6baff3a7e3"><path d="M 340 518 L 439 518 L 439 596 L 340 596 Z M 340 518 " clip-rule="nonzero"/></clipPath><clipPath id="2bf116730d"><path d="M 340.355469 487.914062 L 625.289062 494.128906 L 621.738281 656.839844 L 336.804688 650.625 Z M 340.355469 487.914062 " clip-rule="nonzero"/></clipPath><clipPath id="cc7f18c0a9"><path d="M 625.359375 494.132812 L 340.425781 487.914062 L 336.875 650.625 L 621.808594 656.84375 Z M 625.359375 494.132812 " clip-rule="nonzero"/></clipPath><clipPath id="2ce2d15de4"><path d="M 412 589 L 622 589 L 622 640 L 412 640 Z M 412 589 " clip-rule="nonzero"/></clipPath><clipPath id="732b41add0"><path d="M 340.355469 487.914062 L 625.289062 494.128906 L 621.738281 656.839844 L 336.804688 650.625 Z M 340.355469 487.914062 " clip-rule="nonzero"/></clipPath><clipPath id="10b2e80a0b"><path d="M 625.359375 494.132812 L 340.425781 487.914062 L 336.875 650.625 L 621.808594 656.84375 Z M 625.359375 494.132812 " clip-rule="nonzero"/></clipPath><clipPath id="6007ffc050"><path d="M 418 589 L 615 589 L 615 633 L 418 633 Z M 418 589 " clip-rule="nonzero"/></clipPath><clipPath id="b4e2bf4e80"><path d="M 340.355469 487.914062 L 625.289062 494.128906 L 621.738281 656.839844 L 336.804688 650.625 Z M 340.355469 487.914062 " clip-rule="nonzero"/></clipPath><clipPath id="3c0feb2ef7"><path d="M 625.359375 494.132812 L 340.425781 487.914062 L 336.875 650.625 L 621.808594 656.84375 Z M 625.359375 494.132812 " clip-rule="nonzero"/></clipPath><clipPath id="5779755c7f"><path d="M 406 547 L 593 547 L 593 626 L 406 626 Z M 406 547 " clip-rule="nonzero"/></clipPath><clipPath id="d1628e1295"><path d="M 340.355469 487.914062 L 625.289062 494.128906 L 621.738281 656.839844 L 336.804688 650.625 Z M 340.355469 487.914062 " clip-rule="nonzero"/></clipPath><clipPath id="b9e673db1a"><path d="M 625.359375 494.132812 L 340.425781 487.914062 L 336.875 650.625 L 621.808594 656.84375 Z M 625.359375 494.132812 " clip-rule="nonzero"/></clipPath><clipPath id="d05512c33e"><path d="M 402 504 L 569 504 L 569 592 L 402 592 Z M 402 504 " clip-rule="nonzero"/></clipPath><clipPath id="aa95486bbc"><path d="M 340.355469 487.914062 L 625.289062 494.128906 L 621.738281 656.839844 L 336.804688 650.625 Z M 340.355469 487.914062 " clip-rule="nonzero"/></clipPath><clipPath id="2a0c060792"><path d="M 625.359375 494.132812 L 340.425781 487.914062 L 336.875 650.625 L 621.808594 656.84375 Z M 625.359375 494.132812 " clip-rule="nonzero"/></clipPath><clipPath id="a5f9a8dccb"><path d="M 418 525 L 531 525 L 531 574 L 418 574 Z M 418 525 " clip-rule="nonzero"/></clipPath><clipPath id="424ca197d1"><path d="M 340.355469 487.914062 L 625.289062 494.128906 L 621.738281 656.839844 L 336.804688 650.625 Z M 340.355469 487.914062 " clip-rule="nonzero"/></clipPath><clipPath id="a0f383655b"><path d="M 625.359375 494.132812 L 340.425781 487.914062 L 336.875 650.625 L 621.808594 656.84375 Z M 625.359375 494.132812 " clip-rule="nonzero"/></clipPath></defs><g clip-path="url(#480dd6dab3)"><g clip-path="url(#71aa7e972a)"><path fill="#e89d5d" d="M 47.683594 61.933594 L 762.3125 61.933594 L 762.3125 776.566406 L 47.683594 776.566406 Z M 47.683594 61.933594 " fill-opacity="1" fill-rule="nonzero"/></g></g><path fill="#a7d0e1" d="M 602.007812 649.277344 L 208.261719 649.277344 C 199.558594 649.277344 192.511719 642.234375 192.511719 633.527344 L 192.511719 350.027344 C 192.511719 280.445312 248.929688 224.027344 318.511719 224.027344 L 491.757812 224.027344 C 561.339844 224.027344 617.757812 280.445312 617.757812 350.027344 L 617.757812 633.527344 C 617.757812 642.234375 610.710938 649.277344 602.007812 649.277344 " fill-opacity="1" fill-rule="nonzero"/><path fill="#80bbce" d="M 515.382812 625.652344 C 350.101562 625.652344 216.136719 491.6875 216.136719 326.402344 C 216.136719 297.640625 225.890625 271.21875 242.101562 249.992188 C 212.015625 273.03125 192.511719 309.207031 192.511719 350.027344 L 192.511719 633.527344 C 192.511719 642.234375 199.558594 649.277344 208.261719 649.277344 L 602.007812 649.277344 C 610.710938 649.277344 617.757812 642.234375 617.757812 633.527344 L 617.757812 625.652344 L 515.382812 625.652344 " fill-opacity="1" fill-rule="nonzero"/><path fill="#e6e6e6" d="M 365.761719 263.402344 L 296.394531 283.214844 C 271.691406 290.289062 253.757812 311.636719 251.050781 337.199219 L 224.011719 594.152344 L 271.261719 594.152344 L 294.886719 373.652344 L 309.160156 444.988281 C 310.144531 449.910156 310.542969 454.957031 310.328125 459.972656 L 303.4375 609.257812 C 303.070312 618.179688 310.234375 625.652344 319.1875 625.652344 L 373.636719 625.652344 C 391.046875 625.652344 405.132812 611.535156 405.132812 594.152344 L 405.132812 263.402344 L 365.761719 263.402344 " fill-opacity="1" fill-rule="nonzero"/><path fill="#cecece" d="M 319.1875 625.652344 L 373.636719 625.652344 C 387.601562 625.652344 399.289062 616.488281 403.441406 603.90625 C 367.050781 589.230469 334.230469 567.636719 306.605469 540.691406 L 303.4375 609.257812 C 303.070312 618.179688 310.234375 625.652344 319.1875 625.652344 " fill-opacity="1" fill-rule="nonzero"/><path fill="#cecece" d="M 280.152344 511.25 C 263.910156 490.609375 250.28125 467.875 239.886719 443.390625 L 224.011719 594.152344 L 271.261719 594.152344 L 280.152344 511.25 " fill-opacity="1" fill-rule="nonzero"/><path fill="#e6e6e6" d="M 513.875 283.214844 L 444.507812 263.402344 L 405.132812 263.402344 L 405.132812 594.152344 C 405.132812 611.535156 419.222656 625.652344 436.632812 625.652344 L 491.082031 625.652344 C 500.03125 625.652344 507.199219 618.179688 506.832031 609.257812 L 499.941406 459.972656 C 499.726562 454.957031 500.125 449.910156 501.109375 444.988281 L 515.382812 373.652344 L 539.007812 594.152344 L 586.257812 594.152344 L 559.21875 337.199219 C 556.511719 311.636719 538.578125 290.289062 513.875 283.214844 " fill-opacity="1" fill-rule="nonzero"/><path fill="#cecece" d="M 495.574219 624.914062 C 464.625 622.886719 434.972656 616.179688 407.320312 605.441406 C 411.871094 617.253906 423.222656 625.652344 436.632812 625.652344 L 491.082031 625.652344 C 492.648438 625.652344 494.125 625.347656 495.574219 624.914062 " fill-opacity="1" fill-rule="nonzero"/><path fill="#cecece" d="M 405.132812 452.402344 L 350.011719 247.652344 L 460.257812 247.652344 Z M 405.132812 452.402344 " fill-opacity="1" fill-rule="nonzero"/><path fill="#7a838b" d="M 350.011719 247.652344 L 310.636719 294.902344 L 342.136719 310.652344 L 326.386719 334.277344 L 405.132812 452.402344 L 350.011719 247.652344 " fill-opacity="1" fill-rule="nonzero"/><path fill="#7a838b" d="M 460.257812 247.652344 L 499.632812 294.902344 L 468.132812 310.652344 L 483.882812 334.277344 L 405.132812 452.402344 L 460.257812 247.652344 " fill-opacity="1" fill-rule="nonzero"/><path fill="#7a838b" d="M 350.011719 499.652344 L 350.011719 515.402344 C 350.011719 524.046875 342.933594 531.152344 334.261719 531.152344 L 306.699219 531.152344 L 308.019531 499.652344 L 350.011719 499.652344 " fill-opacity="1" fill-rule="nonzero"/><path fill="#7a838b" d="M 460.257812 499.652344 L 460.257812 515.402344 C 460.257812 524.046875 467.332031 531.152344 476.007812 531.152344 L 503.570312 531.152344 L 502.246094 499.652344 L 460.257812 499.652344 " fill-opacity="1" fill-rule="nonzero"/><g clip-path="url(#8bbceae59a)"><path fill="#000000" d="M 511.691406 290.78125 C 533.441406 296.996094 549.003906 315.542969 551.375 338.03125 L 577.519531 586.277344 L 546.082031 586.277344 L 523.195312 372.824219 C 522.796875 368.945312 519.628906 365.964844 515.75 365.777344 C 511.84375 365.5625 508.429688 368.300781 507.660156 372.117188 L 493.386719 443.421875 C 492.28125 448.988281 491.851562 454.648438 492.066406 460.339844 L 493.542969 491.777344 L 460.257812 491.777344 C 455.921875 491.777344 452.382812 495.316406 452.382812 499.652344 L 452.382812 515.402344 C 452.382812 528.445312 462.964844 539.027344 476.007812 539.027344 L 495.695312 539.027344 L 498.957031 609.566406 C 499.046875 611.75 498.28125 613.78125 496.773438 615.347656 C 495.265625 616.917969 493.265625 617.777344 491.082031 617.777344 L 436.632812 617.777344 C 423.589844 617.777344 413.007812 607.195312 413.007812 594.152344 L 413.007812 454.773438 L 490.433594 338.648438 C 492.1875 336 492.1875 332.554688 490.433594 329.910156 L 479.636719 313.699219 L 503.171875 301.949219 C 505.292969 300.871094 506.863281 298.871094 507.355469 296.535156 C 507.847656 294.164062 507.230469 291.703125 505.691406 289.859375 L 504.832031 288.84375 Z M 494.988281 523.277344 L 476.007812 523.277344 C 471.671875 523.277344 468.132812 519.742188 468.132812 515.402344 L 468.132812 507.527344 L 494.25 507.527344 Z M 349.734375 308.625 C 349.179688 306.4375 347.671875 304.625 345.671875 303.609375 L 323.0625 292.289062 L 346.351562 264.355469 L 385.046875 408.074219 L 335.859375 334.277344 L 348.6875 315.023438 C 349.949219 313.144531 350.316406 310.808594 349.734375 308.625 Z M 446.9375 266.816406 L 430.480469 255.527344 L 449.984375 255.527344 Z M 422.421875 357.902344 L 405.132812 422.101562 L 387.847656 357.902344 Z M 405.132812 257.21875 L 442.601562 282.96875 L 426.667969 342.152344 L 383.601562 342.152344 L 367.667969 282.96875 Z M 360.285156 255.527344 L 379.789062 255.527344 L 363.328125 266.816406 Z M 487.207031 292.289062 L 464.597656 303.609375 C 462.597656 304.625 461.089844 306.4375 460.535156 308.625 C 459.949219 310.808594 460.320312 313.144531 461.582031 315.023438 L 474.410156 334.277344 L 425.222656 408.074219 L 463.917969 264.355469 Z M 342.136719 507.527344 L 342.136719 515.402344 C 342.136719 519.742188 338.597656 523.277344 334.261719 523.277344 L 315.28125 523.277344 L 316.019531 507.527344 Z M 621.417969 316.558594 C 620.339844 312.34375 616.035156 309.824219 611.820312 310.898438 C 607.605469 311.976562 605.082031 316.28125 606.160156 320.496094 C 608.621094 330.09375 609.882812 340 609.882812 350.027344 L 609.882812 633.527344 C 609.882812 637.867188 606.34375 641.402344 602.007812 641.402344 L 208.261719 641.402344 C 203.925781 641.402344 200.386719 637.867188 200.386719 633.527344 L 200.386719 350.027344 C 200.386719 284.875 253.390625 231.902344 318.511719 231.902344 L 397.257812 231.902344 L 397.257812 239.777344 L 350.011719 239.777344 C 347.671875 239.777344 345.457031 240.824219 343.949219 242.609375 L 323.371094 267.308594 L 294.242188 275.648438 C 266.308594 283.644531 246.285156 307.453125 243.238281 336.371094 L 235.242188 412.320312 C 234.777344 416.660156 237.917969 420.535156 242.253906 420.996094 C 242.53125 421.027344 242.808594 421.027344 243.085938 421.027344 C 247.050781 421.027344 250.46875 418.042969 250.898438 413.980469 L 258.894531 338.03125 C 261.265625 315.542969 276.828125 296.996094 298.578125 290.78125 L 305.4375 288.84375 L 304.574219 289.859375 C 303.039062 291.703125 302.421875 294.164062 302.914062 296.535156 C 303.40625 298.871094 304.976562 300.871094 307.097656 301.949219 L 330.632812 313.699219 L 319.832031 329.910156 C 318.082031 332.554688 318.082031 336 319.832031 338.648438 L 397.257812 454.773438 L 397.257812 594.152344 C 397.257812 607.195312 386.679688 617.777344 373.636719 617.777344 L 319.1875 617.777344 C 317.003906 617.777344 315.003906 616.917969 313.496094 615.347656 C 311.988281 613.78125 311.21875 611.75 311.3125 609.597656 L 314.574219 539.027344 L 334.261719 539.027344 C 347.304688 539.027344 357.886719 528.445312 357.886719 515.402344 L 357.886719 499.652344 C 357.886719 495.316406 354.347656 491.777344 350.011719 491.777344 L 316.726562 491.777344 L 318.203125 460.308594 C 318.417969 454.648438 317.988281 448.988281 316.878906 443.421875 L 302.609375 372.117188 C 301.839844 368.300781 298.578125 365.59375 294.515625 365.777344 C 290.640625 365.964844 287.472656 368.945312 287.074219 372.824219 L 264.1875 586.277344 L 232.75 586.277344 L 247.574219 445.390625 C 248.035156 441.082031 244.898438 437.207031 240.59375 436.746094 C 236.195312 436.222656 232.378906 439.421875 231.917969 443.757812 L 216.167969 593.324219 C 215.953125 595.539062 216.660156 597.753906 218.167969 599.414062 C 219.644531 601.074219 221.796875 602.027344 224.011719 602.027344 L 271.261719 602.027344 C 275.292969 602.027344 278.675781 598.984375 279.074219 594.984375 L 297.253906 425.578125 L 301.4375 446.527344 C 302.300781 450.835938 302.636719 455.265625 302.453125 459.601562 L 295.59375 608.917969 C 295.316406 615.410156 297.625 621.5625 302.117188 626.269531 C 306.636719 630.945312 312.695312 633.527344 319.1875 633.527344 L 373.636719 633.527344 C 386.554688 633.527344 397.96875 627.191406 405.132812 617.53125 C 412.300781 627.191406 423.714844 633.527344 436.632812 633.527344 L 491.082031 633.527344 C 497.570312 633.527344 503.632812 630.945312 508.152344 626.269531 C 512.644531 621.5625 514.953125 615.410156 514.675781 608.886719 L 507.816406 459.632812 C 507.632812 455.265625 507.96875 450.835938 508.832031 446.527344 L 513.015625 425.578125 L 531.195312 594.984375 C 531.59375 598.984375 534.976562 602.027344 539.007812 602.027344 L 586.257812 602.027344 C 588.472656 602.027344 590.625 601.074219 592.101562 599.414062 C 593.609375 597.753906 594.316406 595.539062 594.101562 593.324219 L 567.03125 336.371094 C 563.984375 307.453125 543.960938 283.644531 516.027344 275.648438 L 486.898438 267.308594 L 466.320312 242.609375 C 464.8125 240.824219 462.597656 239.777344 460.257812 239.777344 L 413.007812 239.777344 L 413.007812 231.902344 L 491.757812 231.902344 C 534.671875 231.902344 574.289062 255.25 595.117188 292.8125 C 597.238281 296.625 602.035156 298.011719 605.820312 295.855469 C 609.636719 293.765625 611.019531 288.964844 608.898438 285.152344 C 585.273438 242.578125 540.390625 216.152344 491.757812 216.152344 L 414.238281 216.152344 C 415.59375 212.460938 417.960938 209.203125 421.316406 206.957031 L 426.574219 203.449219 C 432.882812 199.234375 436.632812 192.222656 436.632812 184.652344 C 436.632812 167.273438 422.515625 153.152344 405.132812 153.152344 C 387.753906 153.152344 373.636719 167.273438 373.636719 184.652344 L 373.636719 192.527344 C 373.636719 196.867188 377.171875 200.402344 381.511719 200.402344 C 385.847656 200.402344 389.386719 196.867188 389.386719 192.527344 L 389.386719 184.652344 C 389.386719 175.980469 396.460938 168.902344 405.132812 168.902344 C 413.808594 168.902344 420.882812 175.980469 420.882812 184.652344 C 420.882812 186.929688 419.746094 189.082031 417.839844 190.34375 L 412.578125 193.851562 C 404.765625 199.050781 399.597656 207.109375 397.90625 216.152344 L 318.511719 216.152344 C 244.683594 216.152344 184.636719 276.199219 184.636719 350.027344 L 184.636719 633.527344 C 184.636719 646.570312 195.21875 657.152344 208.261719 657.152344 L 602.007812 657.152344 C 615.050781 657.152344 625.632812 646.570312 625.632812 633.527344 L 625.632812 350.027344 C 625.632812 338.675781 624.214844 327.449219 621.417969 316.558594 " fill-opacity="1" fill-rule="nonzero"/></g><path fill="#ffffff" d="M 568.84375 279.152344 C 566.847656 279.152344 564.878906 278.414062 563.339844 276.90625 C 557.617188 271.308594 551.25 266.386719 544.421875 262.265625 C 540.699219 260.019531 539.5 255.191406 541.746094 251.46875 C 543.992188 247.714844 548.820312 246.515625 552.542969 248.792969 C 560.449219 253.527344 567.769531 259.21875 574.351562 265.648438 C 577.457031 268.695312 577.519531 273.679688 574.476562 276.785156 C 572.9375 278.355469 570.875 279.152344 568.84375 279.152344 " fill-opacity="1" fill-rule="nonzero"/><g clip-path="url(#6baff3a7e3)"><g clip-path="url(#2bf116730d)"><g clip-path="url(#cc7f18c0a9)"><path fill="#b55731" d="M 436.121094 586.378906 C 435.707031 585.546875 435.199219 584.777344 434.601562 584.066406 C 434.007812 583.355469 433.335938 582.71875 432.59375 582.164062 C 431.851562 581.609375 431.054688 581.148438 430.203125 580.777344 C 429.351562 580.410156 428.46875 580.140625 427.554688 579.976562 C 423.8125 579.238281 420.289062 580.605469 417.445312 583.007812 C 414.292969 585.660156 411.816406 589.019531 408.574219 591.558594 C 405.335938 594.097656 401.300781 595.628906 397.015625 595.179688 C 394.902344 594.953125 392.882812 594.394531 390.957031 593.503906 C 389.03125 592.613281 387.296875 591.4375 385.757812 589.972656 C 384.128906 588.386719 382.808594 586.578125 381.792969 584.546875 C 380.777344 582.511719 380.128906 580.371094 379.839844 578.117188 C 379.523438 575.738281 379.507812 573.363281 379.800781 570.984375 C 380.09375 568.605469 380.683594 566.300781 381.566406 564.074219 C 382.4375 561.875 383.476562 559.570312 385.199219 557.894531 C 386.921875 556.214844 389.332031 555.398438 391.613281 556.128906 C 396.316406 557.652344 395.808594 564.359375 394.226562 567.976562 C 393.785156 568.976562 393.246094 569.921875 392.613281 570.808594 C 391.976562 571.699219 391.257812 572.511719 390.453125 573.253906 C 389.648438 573.992188 388.777344 574.644531 387.839844 575.203125 C 386.902344 575.761719 385.914062 576.21875 384.882812 576.574219 C 375.964844 579.636719 366.308594 573.558594 362.339844 565.617188 C 360.203125 561.15625 359.226562 556.449219 359.414062 551.503906 C 359.511719 547.15625 360.347656 542.515625 362.816406 538.847656 C 363.996094 537.011719 365.554688 535.597656 367.496094 534.605469 C 369.292969 533.769531 371.164062 533.535156 373.113281 533.898438 C 376.5625 534.476562 379.992188 536.980469 380.390625 540.652344 C 380.890625 545.496094 376.261719 549.128906 371.953125 549.9375 C 370.820312 550.125 369.683594 550.191406 368.539062 550.140625 C 367.394531 550.089844 366.269531 549.917969 365.160156 549.625 C 364.054688 549.332031 362.988281 548.929688 361.964844 548.410156 C 360.941406 547.894531 359.984375 547.277344 359.09375 546.554688 C 355.328125 543.566406 352.761719 539.414062 350.886719 535.050781 C 349.320312 531.453125 348.117188 527.390625 345.433594 524.425781 C 344.308594 523.113281 342.898438 522.277344 341.207031 521.914062 C 341.015625 521.855469 340.84375 521.761719 340.691406 521.636719 C 340.535156 521.507812 340.410156 521.359375 340.316406 521.179688 C 340.222656 521.003906 340.164062 520.816406 340.144531 520.617188 C 340.125 520.421875 340.140625 520.226562 340.199219 520.03125 C 340.257812 519.84375 340.351562 519.671875 340.480469 519.519531 C 340.609375 519.367188 340.757812 519.246094 340.933594 519.152344 C 341.109375 519.054688 341.292969 519 341.492188 518.976562 C 341.6875 518.953125 341.882812 518.96875 342.074219 519.023438 C 345.835938 519.800781 348.429688 522.816406 350.1875 526.046875 C 352.09375 529.53125 353.226562 533.363281 355.117188 536.859375 C 357.066406 540.460938 359.714844 543.855469 363.433594 545.742188 C 366.785156 547.441406 371.105469 547.808594 374.40625 545.8125 C 375.90625 544.910156 377.339844 543.347656 377.433594 541.523438 C 377.464844 541.273438 377.453125 541.023438 377.402344 540.773438 C 377.367188 540.589844 377.320312 540.410156 377.265625 540.230469 C 377.25 540.121094 377.210938 540.019531 377.148438 539.925781 C 376.871094 539.324219 376.480469 538.808594 375.976562 538.378906 C 375.445312 537.921875 374.859375 537.558594 374.214844 537.285156 C 373.570312 537.011719 372.898438 536.84375 372.199219 536.78125 C 371.503906 536.71875 370.8125 536.761719 370.132812 536.917969 C 369.449219 537.070312 368.804688 537.324219 368.203125 537.679688 C 365.058594 539.617188 363.617188 543.414062 362.941406 546.867188 C 362.15625 551.035156 362.269531 555.179688 363.277344 559.300781 C 363.730469 561.359375 364.480469 563.304688 365.523438 565.132812 C 366.570312 566.964844 367.863281 568.601562 369.40625 570.039062 C 370.859375 571.359375 372.5 572.386719 374.324219 573.125 C 376.148438 573.859375 378.042969 574.253906 380.007812 574.3125 C 380.933594 574.316406 381.84375 574.214844 382.746094 574.015625 C 383.648438 573.816406 384.519531 573.519531 385.355469 573.125 C 386.191406 572.730469 386.976562 572.25 387.703125 571.679688 C 388.433594 571.113281 389.089844 570.46875 389.679688 569.753906 C 390.816406 568.394531 391.605469 566.855469 392.050781 565.136719 C 392.453125 563.550781 392.628906 561.3125 391.753906 559.84375 C 390.882812 558.375 388.902344 558.789062 387.777344 559.660156 C 386.246094 560.835938 385.34375 562.851562 384.648438 564.601562 C 382.964844 568.578125 382.339844 572.71875 382.769531 577.019531 C 382.964844 579.011719 383.480469 580.914062 384.324219 582.726562 C 385.167969 584.542969 386.285156 586.164062 387.679688 587.597656 C 388.945312 588.855469 390.375 589.871094 391.976562 590.652344 C 393.578125 591.433594 395.261719 591.933594 397.027344 592.152344 C 398.765625 592.339844 400.46875 592.183594 402.144531 591.679688 C 403.816406 591.175781 405.328125 590.367188 406.671875 589.25 C 409.644531 586.898438 411.984375 583.824219 414.824219 581.308594 C 417.664062 578.789062 421.167969 576.855469 425.152344 576.765625 C 427.0625 576.746094 428.914062 577.066406 430.703125 577.730469 C 432.492188 578.394531 434.105469 579.355469 435.539062 580.617188 C 436.917969 581.828125 437.996094 583.261719 438.78125 584.917969 C 439.621094 586.671875 436.984375 588.140625 436.144531 586.390625 Z M 436.121094 586.378906 " fill-opacity="1" fill-rule="nonzero"/></g></g></g><g clip-path="url(#2ce2d15de4)"><g clip-path="url(#732b41add0)"><g clip-path="url(#10b2e80a0b)"><path fill="#ffc9bd" d="M 591.972656 607.71875 L 608.59375 613.953125 C 608.59375 613.953125 617.941406 622.558594 621.984375 632.785156 C 621.984375 632.785156 540.808594 655.125 415.53125 617.601562 C 415.53125 617.601562 409.566406 610.375 413.722656 594.941406 C 417.878906 579.507812 436.140625 599.101562 436.140625 599.101562 L 563.511719 595.34375 Z M 591.972656 607.71875 " fill-opacity="1" fill-rule="nonzero"/></g></g></g><g clip-path="url(#6007ffc050)"><g clip-path="url(#b4e2bf4e80)"><g clip-path="url(#3c0feb2ef7)"><path fill="#b55731" d="M 614.710938 624.445312 C 586.808594 633.925781 550.738281 633.152344 521.066406 630.492188 C 494.617188 628.101562 481.457031 627 455.574219 622.089844 C 438.085938 618.773438 431.121094 617.050781 424.277344 614.15625 C 420.839844 612.714844 417.507812 610.578125 418.605469 607.589844 C 419.191406 606.003906 420.964844 604.828125 422.695312 603.824219 C 436.714844 595.671875 453.984375 591.558594 471.152344 589.964844 C 488.316406 588.367188 505.550781 589.15625 522.683594 589.941406 C 534.597656 590.488281 546.613281 591.066406 558.074219 593.351562 C 563.234375 594.390625 568.359375 595.789062 573.730469 595.761719 C 593.738281 595.691406 608.515625 610.941406 614.710938 624.445312 Z M 614.710938 624.445312 " fill-opacity="1" fill-rule="nonzero"/></g></g></g><g clip-path="url(#5779755c7f)"><g clip-path="url(#d1628e1295)"><g clip-path="url(#b9e673db1a)"><path fill="#ffca76" d="M 411.527344 554.304688 C 412.15625 551.960938 413.023438 549.703125 414.121094 547.539062 C 417.890625 553.316406 422.617188 558.15625 428.308594 562.054688 C 434.527344 566.316406 441.578125 569.21875 448.742188 571.5625 C 458.863281 574.878906 469.214844 577.121094 479.796875 578.296875 C 490.378906 579.472656 500.972656 579.554688 511.570312 578.542969 C 518.566406 577.875 525.714844 576.652344 531.71875 572.992188 C 538.878906 568.636719 543.589844 561.167969 545.761719 552.980469 C 553.5625 556.234375 560.570312 560.726562 566.789062 566.453125 C 573.261719 572.386719 578.613281 579.203125 582.84375 586.902344 C 585.914062 592.460938 592.113281 600.445312 592.460938 607.050781 C 593.574219 628.492188 559.535156 625.566406 547.40625 624.394531 C 517.113281 621.472656 486.90625 617.613281 456.789062 612.816406 C 442.1875 610.5 427.351562 607.867188 414.152344 600.773438 C 411.492188 599.34375 408.78125 597.59375 407.40625 594.777344 C 406.25 592.378906 406.230469 589.554688 406.328125 586.863281 C 406.71875 575.796875 408.453125 564.941406 411.527344 554.304688 Z M 411.527344 554.304688 " fill-opacity="1" fill-rule="nonzero"/></g></g></g><g clip-path="url(#d05512c33e)"><g clip-path="url(#aa95486bbc)"><g clip-path="url(#2a0c060792)"><path fill="#ff7d43" d="M 410.929688 515.214844 C 424.246094 502.300781 570.609375 492.960938 568.722656 539.253906 C 567.632812 566.261719 567.933594 581.160156 567.933594 581.160156 C 554.027344 609.203125 403.539062 572.597656 403.539062 572.597656 C 403.539062 572.597656 397.621094 528.132812 410.929688 515.214844 Z M 431.921875 546.230469 C 441.453125 562.148438 526.042969 560.082031 526.042969 560.082031 C 527.171875 560.710938 532.558594 538.371094 523.707031 530.816406 C 514.855469 523.261719 463.34375 525.941406 463.34375 525.941406 C 463.34375 525.941406 452.367188 536.921875 444.003906 535.589844 C 435.640625 534.261719 430.210938 524.988281 430.210938 524.988281 C 430.210938 524.988281 422.390625 530.296875 431.921875 546.230469 Z M 431.921875 546.230469 " fill-opacity="1" fill-rule="nonzero"/></g></g></g><g clip-path="url(#a5f9a8dccb)"><g clip-path="url(#424ca197d1)"><g clip-path="url(#a0f383655b)"><path fill="#b55731" d="M 515.457031 570.585938 C 509.546875 572.832031 503.121094 573.335938 496.804688 573.445312 C 486.78125 573.65625 476.804688 573.0625 466.878906 571.664062 C 456.949219 570.261719 447.199219 568.074219 437.625 565.097656 C 431.378906 563.148438 424.765625 560.507812 421.351562 554.921875 C 418 549.449219 418.570312 542.5 419.675781 536.15625 C 420.125 533.613281 420.664062 531.007812 422.113281 528.878906 C 425.117188 524.449219 427.269531 524.542969 428.992188 526.265625 C 427.246094 528.644531 424.984375 534.640625 431.921875 546.210938 C 441.453125 562.128906 526.042969 560.066406 526.042969 560.066406 C 526.699219 560.429688 528.808594 552.988281 528.691406 545.226562 C 529.183594 546.234375 529.566406 547.285156 529.835938 548.371094 C 530.109375 549.457031 530.261719 550.5625 530.304688 551.683594 C 530.34375 552.804688 530.265625 553.914062 530.070312 555.019531 C 529.878906 556.125 529.570312 557.195312 529.152344 558.234375 C 526.765625 564.105469 521.359375 568.34375 515.457031 570.585938 Z M 515.457031 570.585938 " fill-opacity="1" fill-rule="nonzero"/></g></g></g></svg>