<svg xmlns="http://www.w3.org/2000/svg" xmlns:xlink="http://www.w3.org/1999/xlink" width="1080" zoomAndPan="magnify" viewBox="0 0 810 809.999993" height="1080" preserveAspectRatio="xMidYMid meet" version="1.0"><defs><clipPath id="351ec910ef"><path d="M 47.683594 56.265625 L 762.3125 56.265625 L 762.3125 770.894531 L 47.683594 770.894531 Z M 47.683594 56.265625 " clip-rule="nonzero"/></clipPath><clipPath id="99f1d1b475"><path d="M 405 56.265625 C 207.660156 56.265625 47.683594 216.238281 47.683594 413.578125 C 47.683594 610.917969 207.660156 770.894531 405 770.894531 C 602.339844 770.894531 762.3125 610.917969 762.3125 413.578125 C 762.3125 216.238281 602.339844 56.265625 405 56.265625 Z M 405 56.265625 " clip-rule="nonzero"/></clipPath></defs><g clip-path="url(#351ec910ef)"><g clip-path="url(#99f1d1b475)"><path fill="#e89d5d" d="M 47.683594 56.265625 L 762.3125 56.265625 L 762.3125 770.894531 L 47.683594 770.894531 Z M 47.683594 56.265625 " fill-opacity="1" fill-rule="nonzero"/></g></g><path fill="#2c4973" d="M 432.90625 488.183594 C 431.375 488.992188 429.960938 489.964844 428.660156 491.105469 C 427.359375 492.246094 426.207031 493.519531 425.203125 494.925781 C 424.199219 496.332031 423.367188 497.839844 422.714844 499.4375 C 422.0625 501.039062 421.601562 502.695312 421.332031 504.402344 C 420.105469 511.40625 422.796875 517.910156 427.386719 523.113281 C 432.453125 528.875 438.8125 533.355469 443.675781 539.289062 C 448.539062 545.222656 451.558594 552.671875 450.894531 560.675781 C 450.558594 564.617188 449.597656 568.402344 448.015625 572.03125 C 446.433594 575.65625 444.3125 578.933594 441.652344 581.863281 C 440.21875 583.398438 438.664062 584.804688 436.996094 586.082031 C 435.324219 587.359375 433.5625 588.484375 431.699219 589.464844 C 429.839844 590.445312 427.914062 591.261719 425.914062 591.917969 C 423.917969 592.570312 421.878906 593.054688 419.800781 593.367188 C 415.390625 594.054688 410.960938 594.175781 406.519531 593.726562 C 402.074219 593.277344 397.757812 592.277344 393.574219 590.722656 C 389.441406 589.191406 385.109375 587.34375 381.910156 584.203125 C 378.714844 581.0625 377.09375 576.605469 378.367188 572.328125 C 381.011719 563.5 393.527344 564.175781 400.328125 566.980469 C 402.207031 567.757812 403.988281 568.722656 405.671875 569.871094 C 407.355469 571.015625 408.898438 572.324219 410.3125 573.792969 C 411.722656 575.257812 412.96875 576.855469 414.050781 578.582031 C 415.128906 580.304688 416.023438 582.125 416.726562 584.035156 C 422.796875 600.527344 411.867188 618.761719 397.230469 626.472656 C 393.179688 628.523438 388.9375 630.058594 384.511719 631.078125 C 380.085938 632.09375 375.601562 632.566406 371.058594 632.496094 C 362.953125 632.496094 354.277344 631.121094 347.339844 626.675781 C 343.875 624.554688 341.179688 621.707031 339.246094 618.132812 C 338.453125 616.515625 337.925781 614.816406 337.660156 613.035156 C 337.398438 611.253906 337.414062 609.472656 337.707031 607.695312 C 338.640625 601.246094 343.164062 594.75 349.988281 593.863281 C 358.992188 592.734375 365.949219 601.210938 367.625 609.203125 C 368.023438 611.300781 368.199219 613.417969 368.148438 615.550781 C 368.09375 617.6875 367.820312 619.792969 367.324219 621.867188 C 366.824219 623.945312 366.117188 625.945312 365.195312 627.871094 C 364.269531 629.796875 363.15625 631.605469 361.851562 633.292969 C 356.4375 640.429688 348.804688 645.382812 340.757812 649.054688 C 334.113281 652.117188 326.59375 654.523438 321.179688 659.644531 C 320.011719 660.691406 319.042969 661.894531 318.273438 663.261719 C 317.503906 664.625 316.972656 666.078125 316.679688 667.617188 C 316.574219 667.972656 316.410156 668.300781 316.179688 668.59375 C 315.949219 668.882812 315.671875 669.121094 315.347656 669.304688 C 315.023438 669.488281 314.675781 669.605469 314.304688 669.652344 C 313.933594 669.695312 313.570312 669.671875 313.210938 669.574219 C 312.855469 669.46875 312.535156 669.300781 312.246094 669.070312 C 311.957031 668.839844 311.71875 668.5625 311.539062 668.238281 C 311.355469 667.917969 311.238281 667.574219 311.191406 667.207031 C 311.140625 666.839844 311.160156 666.476562 311.253906 666.117188 C 312.546875 659.082031 318.0625 654.128906 324.007812 650.71875 C 330.421875 647.027344 337.515625 644.765625 343.953125 641.09375 C 350.582031 637.324219 356.796875 632.246094 360.164062 625.246094 C 363.191406 618.929688 363.699219 610.871094 359.847656 604.804688 C 358.101562 602.046875 355.132812 599.433594 351.730469 599.332031 C 351.261719 599.289062 350.796875 599.320312 350.335938 599.421875 C 349.996094 599.5 349.664062 599.59375 349.335938 599.703125 C 349.128906 599.738281 348.941406 599.8125 348.769531 599.929688 C 347.660156 600.472656 346.714844 601.222656 345.933594 602.179688 C 345.523438 602.679688 345.152344 603.210938 344.820312 603.765625 C 344.492188 604.324219 344.207031 604.90625 343.96875 605.507812 C 343.726562 606.109375 343.535156 606.726562 343.390625 607.359375 C 343.25 607.992188 343.15625 608.628906 343.109375 609.277344 C 343.066406 609.921875 343.074219 610.570312 343.128906 611.214844 C 343.183594 611.859375 343.292969 612.496094 343.445312 613.125 C 343.601562 613.757812 343.804688 614.371094 344.058594 614.964844 C 344.308594 615.5625 344.601562 616.140625 344.945312 616.691406 C 348.679688 622.464844 355.816406 624.996094 362.28125 626.113281 C 370.074219 627.40625 377.789062 627.03125 385.421875 624.988281 C 389.242188 624.058594 392.832031 622.582031 396.203125 620.5625 C 399.570312 618.539062 402.5625 616.0625 405.179688 613.132812 C 406.371094 611.761719 407.433594 610.296875 408.363281 608.734375 C 409.296875 607.175781 410.082031 605.542969 410.726562 603.84375 C 411.367188 602.144531 411.855469 600.402344 412.191406 598.613281 C 412.523438 596.828125 412.695312 595.027344 412.710938 593.207031 C 412.675781 591.484375 412.457031 589.789062 412.046875 588.113281 C 411.636719 586.441406 411.046875 584.835938 410.277344 583.292969 C 409.511719 581.75 408.582031 580.3125 407.492188 578.976562 C 406.40625 577.640625 405.183594 576.441406 403.828125 575.378906 C 401.246094 573.3125 398.34375 571.902344 395.125 571.144531 C 392.15625 570.457031 387.980469 570.222656 385.277344 571.910156 C 382.574219 573.597656 383.429688 577.269531 385.097656 579.328125 C 387.347656 582.132812 391.140625 583.730469 394.429688 584.957031 C 398.109375 586.421875 401.917969 587.40625 405.847656 587.914062 C 409.777344 588.421875 413.707031 588.433594 417.640625 587.953125 C 421.339844 587.511719 424.863281 586.46875 428.210938 584.824219 C 431.554688 583.179688 434.535156 581.03125 437.148438 578.371094 C 439.4375 575.96875 441.273438 573.261719 442.664062 570.25 C 444.050781 567.234375 444.914062 564.078125 445.253906 560.777344 C 445.390625 559.171875 445.371094 557.566406 445.1875 555.964844 C 445.003906 554.363281 444.660156 552.796875 444.164062 551.261719 C 443.667969 549.730469 443.019531 548.261719 442.226562 546.859375 C 441.4375 545.453125 440.511719 544.144531 439.457031 542.925781 C 434.953125 537.488281 429.132812 533.253906 424.328125 528.066406 C 419.519531 522.875 415.773438 516.425781 415.445312 509.007812 C 415.386719 507.246094 415.492188 505.492188 415.753906 503.746094 C 416.019531 502 416.4375 500.296875 417.015625 498.628906 C 417.59375 496.960938 418.316406 495.359375 419.1875 493.828125 C 420.058594 492.292969 421.0625 490.851562 422.199219 489.5 C 424.398438 486.886719 427.023438 484.816406 430.078125 483.285156 C 433.308594 481.652344 436.15625 486.503906 432.925781 488.136719 Z M 432.90625 488.183594 " fill-opacity="1" fill-rule="nonzero"/><path fill="#e8fbff" d="M 466.324219 196.980469 L 477.265625 165.765625 C 477.265625 165.765625 492.914062 148.003906 511.804688 140.054688 C 511.804688 140.054688 556.71875 290.367188 491.914062 525.273438 C 491.914062 525.273438 478.6875 536.675781 449.765625 529.5625 C 420.847656 522.449219 456.609375 487.632812 456.609375 487.632812 L 444.429688 250.507812 Z M 466.324219 196.980469 " fill-opacity="1" fill-rule="nonzero"/><path fill="#2c4973" d="M 496.5625 153.945312 C 515.359375 205.535156 515.382812 272.761719 511.632812 328.144531 C 508.257812 377.515625 506.738281 402.078125 498.644531 450.496094 C 493.171875 483.207031 490.246094 496.253906 485.136719 509.121094 C 482.59375 515.582031 478.742188 521.875 473.136719 519.949219 C 470.152344 518.925781 467.890625 515.671875 465.953125 512.484375 C 450.195312 486.695312 441.832031 454.695312 438.160156 422.78125 C 434.492188 390.867188 435.257812 358.730469 436.023438 326.78125 C 436.5625 304.5625 437.148438 282.160156 440.941406 260.71875 C 442.664062 251.058594 445.0625 241.457031 444.792969 231.449219 C 443.847656 194.179688 471.660156 166.035156 496.5625 153.945312 Z M 496.5625 153.945312 " fill-opacity="1" fill-rule="nonzero"/><path fill="#9decfe" d="M 374.15625 535.304688 C 369.761719 534.222656 365.523438 532.703125 361.445312 530.746094 C 366.699219 527.152344 371.554688 523.085938 376.007812 518.539062 C 380.460938 513.992188 384.429688 509.054688 387.910156 503.726562 C 395.597656 491.964844 400.722656 478.714844 404.796875 465.273438 C 407.667969 455.808594 410.046875 446.214844 411.933594 436.503906 C 413.816406 426.789062 415.199219 417.003906 416.078125 407.148438 C 416.953125 397.292969 417.324219 387.417969 417.183594 377.527344 C 417.042969 367.632812 416.398438 357.773438 415.242188 347.945312 C 413.710938 334.945312 411.144531 321.671875 404.085938 310.640625 C 395.679688 297.480469 381.574219 289.003906 366.230469 285.289062 C 369.082031 278.015625 372.546875 271.042969 376.617188 264.375 C 380.691406 257.703125 385.308594 251.4375 390.476562 245.578125 C 401.273438 233.277344 413.75 223.027344 427.917969 214.835938 C 438.148438 208.890625 452.773438 197.015625 465.066406 196.101562 C 504.960938 193.152344 500.894531 256.6875 499.207031 279.324219 C 494.988281 335.878906 489.027344 392.304688 481.320312 448.605469 C 477.59375 475.902344 473.292969 503.648438 460.617188 528.527344 C 458.0625 533.535156 454.910156 538.65625 449.722656 541.335938 C 445.296875 543.589844 440.042969 543.734375 435.019531 543.667969 C 414.386719 543.386719 394.097656 540.601562 374.15625 535.304688 Z M 374.15625 535.304688 " fill-opacity="1" fill-rule="nonzero"/><path fill="#99d3dd" d="M 301.359375 538.003906 C 276.761719 513.722656 253.414062 241.445312 339.730469 243.078125 C 390.082031 244.011719 417.832031 242.839844 417.832031 242.839844 C 470.636719 267.605469 408.554688 549.441406 408.554688 549.441406 C 408.554688 549.441406 325.964844 562.273438 301.359375 538.003906 Z M 358.285156 497.636719 C 387.550781 479.234375 380.269531 321.738281 380.269531 321.738281 C 381.394531 319.613281 339.550781 310.484375 325.839844 327.277344 C 312.128906 344.074219 319.210938 439.925781 319.210938 439.925781 C 319.210938 439.925781 340.113281 459.929688 337.976562 475.5625 C 335.835938 491.199219 318.78125 501.691406 318.78125 501.691406 C 318.78125 501.691406 328.992188 516.042969 358.285156 497.636719 Z M 358.285156 497.636719 " fill-opacity="1" fill-rule="nonzero"/><path fill="#2c4973" d="M 400.261719 341.035156 C 404.683594 351.953125 405.886719 363.898438 406.351562 375.660156 C 407.148438 394.324219 406.449219 412.933594 404.242188 431.484375 C 402.035156 450.035156 398.355469 468.289062 393.203125 486.246094 C 389.824219 497.964844 385.175781 510.390625 374.910156 516.976562 C 364.847656 523.4375 351.878906 522.664062 340.011719 520.859375 C 335.261719 520.128906 330.390625 519.230469 326.359375 516.617188 C 317.984375 511.203125 318.074219 507.183594 321.214844 503.910156 C 325.71875 507.058594 336.972656 511.035156 358.25 497.636719 C 387.515625 479.234375 380.234375 321.738281 380.234375 321.738281 C 380.886719 320.5 366.941406 316.878906 352.484375 317.40625 C 354.34375 316.449219 356.277344 315.695312 358.292969 315.148438 C 360.308594 314.597656 362.359375 314.261719 364.445312 314.144531 C 366.53125 314.023438 368.605469 314.121094 370.671875 314.4375 C 372.734375 314.753906 374.746094 315.28125 376.699219 316.019531 C 387.730469 320.230469 395.847656 330.125 400.261719 341.035156 Z M 400.261719 341.035156 " fill-opacity="1" fill-rule="nonzero"/></svg>