<svg xmlns="http://www.w3.org/2000/svg" xmlns:xlink="http://www.w3.org/1999/xlink" width="1080" zoomAndPan="magnify" viewBox="0 0 810 809.999993" height="1080" preserveAspectRatio="xMidYMid meet" version="1.0"><defs><clipPath id="c8a21499e2"><path d="M 47.683594 56.265625 L 762.3125 56.265625 L 762.3125 770.894531 L 47.683594 770.894531 Z M 47.683594 56.265625 " clip-rule="nonzero"/></clipPath><clipPath id="022d41243b"><path d="M 405 56.265625 C 207.660156 56.265625 47.683594 216.238281 47.683594 413.578125 C 47.683594 610.917969 207.660156 770.894531 405 770.894531 C 602.339844 770.894531 762.3125 610.917969 762.3125 413.578125 C 762.3125 216.238281 602.339844 56.265625 405 56.265625 Z M 405 56.265625 " clip-rule="nonzero"/></clipPath><clipPath id="a54b58466e"><path d="M 439.433594 216.292969 L 640.433594 216.292969 L 640.433594 610.792969 L 439.433594 610.792969 Z M 439.433594 216.292969 " clip-rule="nonzero"/></clipPath><clipPath id="9c523255b3"><path d="M 439.433594 216.292969 L 557 216.292969 L 557 610.792969 L 439.433594 610.792969 Z M 439.433594 216.292969 " clip-rule="nonzero"/></clipPath></defs><g clip-path="url(#c8a21499e2)"><g clip-path="url(#022d41243b)"><path fill="#e89d5d" d="M 47.683594 56.265625 L 762.3125 56.265625 L 762.3125 770.894531 L 47.683594 770.894531 Z M 47.683594 56.265625 " fill-opacity="1" fill-rule="nonzero"/></g></g><g clip-path="url(#a54b58466e)"><path fill="#fedd2b" d="M 539.078125 216.292969 L 640.398438 216.292969 L 560.042969 352.335938 L 619.433594 352.335938 L 439.511719 610.792969 L 519.867188 410.335938 L 455.238281 413.527344 Z M 539.078125 216.292969 " fill-opacity="1" fill-rule="nonzero"/></g><g clip-path="url(#9c523255b3)"><path fill="#f8cf29" d="M 539.078125 216.292969 L 556.546875 216.292969 L 455.238281 413.527344 Z M 439.511719 610.792969 L 532.097656 410.335938 L 519.867188 410.335938 Z M 439.511719 610.792969 " fill-opacity="1" fill-rule="nonzero"/></g><path fill="#2c4973" d="M 316.453125 503.132812 C 314.925781 503.941406 313.511719 504.917969 312.210938 506.054688 C 310.910156 507.195312 309.757812 508.46875 308.75 509.875 C 307.746094 511.285156 306.917969 512.789062 306.265625 514.390625 C 305.609375 515.992188 305.152344 517.644531 304.882812 519.355469 C 303.65625 526.355469 306.347656 532.863281 310.9375 538.0625 C 316.003906 543.828125 322.363281 548.304688 327.226562 554.238281 C 332.089844 560.171875 335.105469 567.625 334.441406 575.625 C 334.109375 579.570312 333.148438 583.355469 331.566406 586.980469 C 329.984375 590.609375 327.863281 593.882812 325.203125 596.8125 C 323.769531 598.347656 322.214844 599.757812 320.546875 601.03125 C 318.875 602.308594 317.109375 603.4375 315.25 604.414062 C 313.390625 605.394531 311.464844 606.210938 309.464844 606.867188 C 307.46875 607.519531 305.429688 608.003906 303.351562 608.316406 C 298.9375 609.003906 294.511719 609.125 290.066406 608.675781 C 285.625 608.230469 281.308594 607.226562 277.125 605.671875 C 272.992188 604.140625 268.660156 602.292969 265.460938 599.152344 C 262.265625 596.011719 260.644531 591.554688 261.914062 587.277344 C 264.5625 578.453125 277.078125 579.128906 283.878906 581.929688 C 285.757812 582.710938 287.539062 583.671875 289.222656 584.820312 C 290.902344 585.96875 292.449219 587.273438 293.863281 588.742188 C 295.273438 590.210938 296.519531 591.804688 297.601562 593.53125 C 298.679688 595.257812 299.574219 597.074219 300.277344 598.984375 C 306.347656 615.476562 295.414062 633.710938 280.78125 641.421875 C 276.730469 643.472656 272.488281 645.007812 268.0625 646.027344 C 263.636719 647.046875 259.152344 647.519531 254.609375 647.445312 C 246.503906 647.445312 237.824219 646.070312 230.890625 641.625 C 227.425781 639.503906 224.726562 636.65625 222.796875 633.082031 C 222.003906 631.464844 221.476562 629.765625 221.210938 627.984375 C 220.949219 626.203125 220.964844 624.421875 221.257812 622.644531 C 222.191406 616.195312 226.714844 609.699219 233.539062 608.8125 C 242.542969 607.6875 249.5 616.164062 251.175781 624.15625 C 251.574219 626.253906 251.746094 628.367188 251.695312 630.503906 C 251.644531 632.636719 251.371094 634.742188 250.875 636.820312 C 250.375 638.894531 249.664062 640.894531 248.742188 642.820312 C 247.820312 644.746094 246.707031 646.554688 245.402344 648.246094 C 239.988281 655.382812 232.355469 660.335938 224.308594 664.003906 C 217.664062 667.066406 210.144531 669.476562 204.730469 674.597656 C 203.5625 675.640625 202.59375 676.847656 201.824219 678.210938 C 201.050781 679.574219 200.519531 681.027344 200.226562 682.566406 C 200.125 682.925781 199.960938 683.25 199.730469 683.542969 C 199.5 683.835938 199.21875 684.074219 198.894531 684.257812 C 198.570312 684.4375 198.226562 684.554688 197.855469 684.601562 C 197.484375 684.648438 197.121094 684.621094 196.761719 684.523438 C 196.40625 684.417969 196.085938 684.25 195.796875 684.019531 C 195.507812 683.789062 195.269531 683.511719 195.085938 683.191406 C 194.90625 682.867188 194.789062 682.523438 194.738281 682.15625 C 194.691406 681.789062 194.710938 681.429688 194.800781 681.070312 C 196.097656 674.035156 201.613281 669.082031 207.554688 665.667969 C 213.972656 661.976562 221.066406 659.714844 227.503906 656.046875 C 234.132812 652.273438 240.347656 647.199219 243.714844 640.195312 C 246.742188 633.878906 247.246094 625.820312 243.398438 619.753906 C 241.652344 616.996094 238.679688 614.382812 235.28125 614.28125 C 234.8125 614.242188 234.347656 614.269531 233.886719 614.371094 C 233.546875 614.449219 233.214844 614.542969 232.882812 614.652344 C 232.679688 614.6875 232.492188 614.761719 232.320312 614.878906 C 231.210938 615.421875 230.265625 616.171875 229.484375 617.128906 C 229.074219 617.628906 228.703125 618.160156 228.371094 618.71875 C 228.042969 619.277344 227.757812 619.855469 227.515625 620.457031 C 227.277344 621.058594 227.085938 621.675781 226.941406 622.308594 C 226.796875 622.941406 226.703125 623.578125 226.660156 624.226562 C 226.617188 624.875 226.621094 625.519531 226.679688 626.164062 C 226.734375 626.8125 226.839844 627.449219 226.996094 628.078125 C 227.152344 628.707031 227.355469 629.320312 227.605469 629.917969 C 227.859375 630.515625 228.152344 631.089844 228.492188 631.640625 C 232.230469 637.414062 239.367188 639.949219 245.828125 641.0625 C 253.625 642.355469 261.339844 641.980469 268.972656 639.9375 C 272.789062 639.007812 276.382812 637.53125 279.753906 635.511719 C 283.121094 633.488281 286.113281 631.015625 288.730469 628.082031 C 289.921875 626.710938 290.984375 625.246094 291.914062 623.683594 C 292.847656 622.125 293.632812 620.496094 294.277344 618.792969 C 294.917969 617.09375 295.40625 615.351562 295.738281 613.566406 C 296.074219 611.777344 296.246094 609.976562 296.261719 608.160156 C 296.226562 606.4375 296.007812 604.738281 295.597656 603.066406 C 295.183594 601.390625 294.597656 599.785156 293.828125 598.242188 C 293.058594 596.699219 292.132812 595.261719 291.042969 593.925781 C 289.957031 592.589844 288.734375 591.390625 287.378906 590.328125 C 284.796875 588.265625 281.894531 586.851562 278.675781 586.09375 C 275.707031 585.410156 271.527344 585.171875 268.828125 586.859375 C 266.125 588.550781 266.980469 592.21875 268.648438 594.277344 C 270.898438 597.082031 274.691406 598.679688 277.980469 599.90625 C 281.660156 601.371094 285.46875 602.355469 289.398438 602.863281 C 293.328125 603.371094 297.257812 603.382812 301.191406 602.902344 C 304.890625 602.460938 308.414062 601.417969 311.761719 599.773438 C 315.105469 598.132812 318.085938 595.980469 320.699219 593.324219 C 322.988281 590.921875 324.824219 588.210938 326.214844 585.199219 C 327.601562 582.183594 328.464844 579.027344 328.804688 575.726562 C 328.941406 574.121094 328.917969 572.519531 328.734375 570.917969 C 328.554688 569.316406 328.210938 567.746094 327.714844 566.214844 C 327.214844 564.679688 326.570312 563.210938 325.777344 561.808594 C 324.984375 560.402344 324.0625 559.09375 323.007812 557.875 C 318.503906 552.4375 312.683594 548.207031 307.878906 543.015625 C 303.070312 537.828125 299.320312 531.375 298.996094 523.957031 C 298.9375 522.195312 299.039062 520.441406 299.304688 518.695312 C 299.570312 516.953125 299.988281 515.246094 300.566406 513.578125 C 301.144531 511.910156 301.867188 510.3125 302.738281 508.777344 C 303.609375 507.242188 304.613281 505.800781 305.75 504.449219 C 307.949219 501.835938 310.574219 499.765625 313.628906 498.238281 C 316.859375 496.605469 319.707031 501.457031 316.476562 503.089844 Z M 316.453125 503.132812 " fill-opacity="1" fill-rule="nonzero"/><path fill="#e8fbff" d="M 349.875 211.929688 L 360.816406 180.714844 C 360.816406 180.714844 376.464844 162.953125 395.351562 155.003906 C 395.351562 155.003906 440.269531 305.316406 375.460938 540.222656 C 375.460938 540.222656 362.234375 551.628906 333.316406 544.511719 C 304.398438 537.398438 340.160156 502.582031 340.160156 502.582031 L 327.980469 265.457031 Z M 349.875 211.929688 " fill-opacity="1" fill-rule="nonzero"/><path fill="#2c4973" d="M 380.113281 168.898438 C 398.910156 220.488281 398.933594 287.710938 395.183594 343.09375 C 391.808594 392.46875 390.289062 417.03125 382.195312 465.445312 C 376.722656 498.15625 373.796875 511.203125 368.6875 524.070312 C 366.140625 530.53125 362.292969 536.824219 356.6875 534.898438 C 353.703125 533.875 351.441406 530.621094 349.503906 527.4375 C 333.746094 501.648438 325.382812 469.644531 321.710938 437.730469 C 318.042969 405.816406 318.808594 373.679688 319.574219 341.734375 C 320.113281 319.511719 320.699219 297.113281 324.492188 275.667969 C 326.214844 266.007812 328.613281 256.40625 328.34375 246.398438 C 327.394531 209.128906 355.210938 180.988281 380.113281 168.898438 Z M 380.113281 168.898438 " fill-opacity="1" fill-rule="nonzero"/><path fill="#9decfe" d="M 257.707031 550.253906 C 253.3125 549.171875 249.074219 547.652344 244.996094 545.695312 C 250.25 542.105469 255.105469 538.035156 259.558594 533.488281 C 264.011719 528.941406 267.980469 524.003906 271.460938 518.679688 C 279.148438 506.914062 284.273438 493.667969 288.347656 480.226562 C 291.21875 470.757812 293.597656 461.167969 295.484375 451.453125 C 297.367188 441.738281 298.75 431.957031 299.625 422.101562 C 300.503906 412.246094 300.875 402.371094 300.734375 392.476562 C 300.59375 382.582031 299.949219 372.722656 298.792969 362.894531 C 297.261719 349.894531 294.695312 336.621094 287.636719 325.589844 C 279.226562 312.433594 265.125 303.957031 249.78125 300.242188 C 252.632812 292.964844 256.097656 285.992188 260.167969 279.324219 C 264.238281 272.652344 268.859375 266.386719 274.027344 260.527344 C 284.820312 248.226562 297.300781 237.976562 311.46875 229.785156 C 321.699219 223.839844 336.324219 211.964844 348.617188 211.054688 C 388.507812 208.105469 384.445312 271.636719 382.757812 294.273438 C 378.539062 350.828125 372.578125 407.253906 364.871094 463.554688 C 361.144531 490.851562 356.84375 518.601562 344.167969 543.476562 C 341.613281 548.488281 338.460938 553.609375 333.273438 556.289062 C 328.847656 558.539062 323.589844 558.683594 318.570312 558.617188 C 297.9375 558.339844 277.648438 555.550781 257.707031 550.253906 Z M 257.707031 550.253906 " fill-opacity="1" fill-rule="nonzero"/><path fill="#99d3dd" d="M 184.90625 552.957031 C 160.3125 528.675781 136.964844 256.394531 223.28125 258.027344 C 273.632812 258.960938 301.382812 257.792969 301.382812 257.792969 C 354.1875 282.554688 292.105469 564.390625 292.105469 564.390625 C 292.105469 564.390625 209.515625 577.226562 184.90625 552.957031 Z M 241.832031 512.589844 C 271.101562 494.183594 263.816406 336.691406 263.816406 336.691406 C 264.945312 334.5625 223.101562 325.433594 209.390625 342.230469 C 195.679688 359.023438 202.761719 454.875 202.761719 454.875 C 202.761719 454.875 223.664062 474.878906 221.527344 490.515625 C 219.386719 506.148438 202.332031 516.640625 202.332031 516.640625 C 202.332031 516.640625 212.542969 530.992188 241.832031 512.589844 Z M 241.832031 512.589844 " fill-opacity="1" fill-rule="nonzero"/><path fill="#2c4973" d="M 283.808594 355.984375 C 288.234375 366.902344 289.4375 378.847656 289.898438 390.609375 C 290.699219 409.273438 289.996094 427.882812 287.792969 446.433594 C 285.585938 464.984375 281.90625 483.238281 276.753906 501.195312 C 273.375 512.914062 268.726562 525.34375 258.460938 531.929688 C 248.394531 538.390625 235.429688 537.613281 223.5625 535.8125 C 218.8125 535.078125 213.9375 534.179688 209.910156 531.566406 C 201.535156 526.152344 201.625 522.132812 204.765625 518.859375 C 209.269531 522.011719 220.523438 525.984375 241.800781 512.589844 C 271.066406 494.183594 263.785156 336.691406 263.785156 336.691406 C 264.4375 335.453125 250.488281 331.828125 236.035156 332.355469 C 237.894531 331.398438 239.828125 330.648438 241.84375 330.097656 C 243.859375 329.546875 245.910156 329.210938 247.996094 329.09375 C 250.082031 328.972656 252.15625 329.074219 254.222656 329.390625 C 256.285156 329.707031 258.296875 330.234375 260.25 330.972656 C 271.28125 335.183594 279.398438 345.078125 283.808594 355.984375 Z M 283.808594 355.984375 " fill-opacity="1" fill-rule="nonzero"/></svg>