<svg width="198" height="198" viewBox="0 0 198 198" fill="none" xmlns="http://www.w3.org/2000/svg">
<circle cx="99" cy="99" r="99" fill="#FFDCBD"/>
<path d="M138 43C143.039 43 147.871 44.802 151.435 48.0088C154.998 51.2156 157 55.5645 157 60.0996V139.9C157 144.435 154.998 148.784 151.435 151.991C147.871 155.198 143.039 157 138 157H62C56.9609 157 52.1286 155.198 48.5654 151.991C45.0023 148.784 43.0001 144.435 43 139.9V60.0996C43.0001 55.5645 45.0023 51.2156 48.5654 48.0088C52.1286 44.802 56.9609 43 62 43H138ZM55.667 139.9C55.6671 141.412 56.3339 142.862 57.5215 143.931C58.7092 145 60.3203 145.6 62 145.6H138C139.68 145.6 141.291 145 142.479 143.931C143.666 142.862 144.333 141.412 144.333 139.9V88.5996H55.667V139.9ZM100 94.2998C106.719 94.2998 113.162 96.7019 117.913 100.978C122.664 105.253 125.333 111.053 125.333 117.1C125.333 123.147 122.664 128.946 117.913 133.222C113.162 137.498 106.719 139.9 100 139.9C93.2812 139.9 86.8378 137.498 82.0869 133.222C77.336 128.946 74.667 123.147 74.667 117.1C74.6671 111.053 77.3361 105.253 82.0869 100.978C86.8378 96.7019 93.2814 94.2998 100 94.2998ZM100 105.7C96.6406 105.7 93.4184 106.901 91.043 109.039C88.6678 111.177 87.3331 114.076 87.333 117.1C87.333 120.123 88.6676 123.023 91.043 125.161C93.4184 127.299 96.6406 128.5 100 128.5C103.359 128.5 106.582 127.299 108.957 125.161C111.332 123.023 112.667 120.123 112.667 117.1C112.667 114.076 111.332 111.177 108.957 109.039C106.582 106.901 103.359 105.7 100 105.7ZM62 54.4004C60.3203 54.4004 58.7092 55.0004 57.5215 56.0693C56.3339 57.1382 55.6671 58.588 55.667 60.0996V77.2002H144.333V60.0996C144.333 58.588 143.666 57.1382 142.479 56.0693C141.291 55.0004 139.68 54.4004 138 54.4004H62ZM81 60.0996C82.6797 60.0996 84.2908 60.7006 85.4785 61.7695C86.6661 62.8384 87.333 64.2882 87.333 65.7998C87.333 67.3114 86.6661 68.7611 85.4785 69.8301C84.2908 70.899 82.6797 71.5 81 71.5H68.333C66.6534 71.4999 65.0431 70.8989 63.8555 69.8301C62.6677 68.7611 62 67.3115 62 65.7998C62.0001 64.2881 62.6678 62.8384 63.8555 61.7695C65.0431 60.7008 66.6535 60.0997 68.333 60.0996H81ZM112.667 60.0996C114.346 60.0997 115.957 60.7008 117.145 61.7695C118.332 62.8384 119 64.2881 119 65.7998C119 67.3115 118.332 68.7611 117.145 69.8301C115.957 70.8989 114.347 71.4999 112.667 71.5C110.987 71.5 109.376 70.899 108.188 69.8301C107.001 68.7611 106.333 67.3115 106.333 65.7998C106.333 64.2881 107.001 62.8384 108.188 61.7695C109.376 60.7006 110.987 60.0996 112.667 60.0996ZM131.667 60.0996C133.347 60.0997 134.958 60.7006 136.146 61.7695C137.333 62.8384 138 64.2883 138 65.7998C138 67.3113 137.333 68.7612 136.146 69.8301C134.958 70.899 133.347 71.4999 131.667 71.5C129.987 71.5 128.376 70.899 127.188 69.8301C126.001 68.7611 125.333 67.3115 125.333 65.7998C125.333 64.2881 126.001 62.8384 127.188 61.7695C128.376 60.7006 129.987 60.0996 131.667 60.0996Z" fill="#2E2E2E"/>
<path d="M138 43C143.039 43 147.871 44.802 151.435 48.0088C154.998 51.2156 157 55.5645 157 60.0996V139.9C157 144.435 154.998 148.784 151.435 151.991C147.871 155.198 143.039 157 138 157H62C56.9609 157 52.1286 155.198 48.5654 151.991C45.0023 148.784 43.0001 144.435 43 139.9V60.0996C43.0001 55.5645 45.0023 51.2156 48.5654 48.0088C52.1286 44.802 56.9609 43 62 43H138ZM55.667 139.9C55.6671 141.412 56.3339 142.862 57.5215 143.931C58.7092 145 60.3203 145.6 62 145.6H138C139.68 145.6 141.291 145 142.479 143.931C143.666 142.862 144.333 141.412 144.333 139.9V88.5996H55.667V139.9ZM100 94.2998C106.719 94.2998 113.162 96.7019 117.913 100.978C122.664 105.253 125.333 111.053 125.333 117.1C125.333 123.147 122.664 128.946 117.913 133.222C113.162 137.498 106.719 139.9 100 139.9C93.2812 139.9 86.8378 137.498 82.0869 133.222C77.336 128.946 74.667 123.147 74.667 117.1C74.6671 111.053 77.3361 105.253 82.0869 100.978C86.8378 96.7019 93.2814 94.2998 100 94.2998ZM100 105.7C96.6406 105.7 93.4184 106.901 91.043 109.039C88.6678 111.177 87.3331 114.076 87.333 117.1C87.333 120.123 88.6676 123.023 91.043 125.161C93.4184 127.299 96.6406 128.5 100 128.5C103.359 128.5 106.582 127.299 108.957 125.161C111.332 123.023 112.667 120.123 112.667 117.1C112.667 114.076 111.332 111.177 108.957 109.039C106.582 106.901 103.359 105.7 100 105.7ZM62 54.4004C60.3203 54.4004 58.7092 55.0004 57.5215 56.0693C56.3339 57.1382 55.6671 58.588 55.667 60.0996V77.2002H144.333V60.0996C144.333 58.588 143.666 57.1382 142.479 56.0693C141.291 55.0004 139.68 54.4004 138 54.4004H62ZM81 60.0996C82.6797 60.0996 84.2908 60.7006 85.4785 61.7695C86.6661 62.8384 87.333 64.2882 87.333 65.7998C87.333 67.3114 86.6661 68.7611 85.4785 69.8301C84.2908 70.899 82.6797 71.5 81 71.5H68.333C66.6534 71.4999 65.0431 70.8989 63.8555 69.8301C62.6677 68.7611 62 67.3115 62 65.7998C62.0001 64.2881 62.6678 62.8384 63.8555 61.7695C65.0431 60.7008 66.6535 60.0997 68.333 60.0996H81ZM112.667 60.0996C114.346 60.0997 115.957 60.7008 117.145 61.7695C118.332 62.8384 119 64.2881 119 65.7998C119 67.3115 118.332 68.7611 117.145 69.8301C115.957 70.8989 114.347 71.4999 112.667 71.5C110.987 71.5 109.376 70.899 108.188 69.8301C107.001 68.7611 106.333 67.3115 106.333 65.7998C106.333 64.2881 107.001 62.8384 108.188 61.7695C109.376 60.7006 110.987 60.0996 112.667 60.0996ZM131.667 60.0996C133.347 60.0997 134.958 60.7006 136.146 61.7695C137.333 62.8384 138 64.2883 138 65.7998C138 67.3113 137.333 68.7612 136.146 69.8301C134.958 70.899 133.347 71.4999 131.667 71.5C129.987 71.5 128.376 70.899 127.188 69.8301C126.001 68.7611 125.333 67.3115 125.333 65.7998C125.333 64.2881 126.001 62.8384 127.188 61.7695C128.376 60.7006 129.987 60.0996 131.667 60.0996Z" stroke="black"/>
</svg>
