<svg width="198" height="198" viewBox="0 0 198 198" fill="none" xmlns="http://www.w3.org/2000/svg">
<circle cx="99" cy="99" r="99" fill="#FFDCBD"/>
<path d="M141.375 46.375C144.624 46.375 147.74 47.6656 150.037 49.9629C152.334 52.2603 153.625 55.3761 153.625 58.625V144.375C153.625 147.624 152.334 150.74 150.037 153.037C147.74 155.334 144.624 156.625 141.375 156.625H55.625C52.3761 156.625 49.2603 155.334 46.9629 153.037C44.6656 150.74 43.375 147.624 43.375 144.375V58.625C43.375 55.3761 44.6656 52.2603 46.9629 49.9629C49.2603 47.6656 52.3761 46.375 55.625 46.375H81.2275C83.8 39.27 90.5375 34.125 98.5 34.125C106.462 34.125 113.2 39.27 115.772 46.375H141.375ZM98.5 46.375C96.8755 46.375 95.3176 47.0203 94.169 48.169C93.0203 49.3176 92.375 50.8755 92.375 52.5C92.375 54.1245 93.0203 55.6824 94.169 56.831C95.3176 57.9797 96.8755 58.625 98.5 58.625C100.124 58.625 101.682 57.9797 102.831 56.831C103.98 55.6824 104.625 54.1245 104.625 52.5C104.625 50.8755 103.98 49.3176 102.831 48.169C101.682 47.0203 100.124 46.375 98.5 46.375ZM67.875 70.875V58.625H55.625V144.375H141.375V58.625H129.125V70.875H67.875ZM98.5 138.25L67.875 107.625H86.25V83.125H110.75V107.625H129.125L98.5 138.25Z" fill="#2E2E2E"/>
</svg>
